<?xml version="1.0" encoding="UTF-8" standalone="no"?>
<!-- Created with Inkscape (http://www.inkscape.org/) -->

<svg
   xmlns:dc="http://purl.org/dc/elements/1.1/"
   xmlns:cc="http://creativecommons.org/ns#"
   xmlns:rdf="http://www.w3.org/1999/02/22-rdf-syntax-ns#"
   xmlns:svg="http://www.w3.org/2000/svg"
   xmlns="http://www.w3.org/2000/svg"
   xmlns:sodipodi="http://sodipodi.sourceforge.net/DTD/sodipodi-0.dtd"
   xmlns:inkscape="http://www.inkscape.org/namespaces/inkscape"
   id="svg2985"
   version="1.1"
   inkscape:version="0.48.4 r9939"
   width="230.0675"
   height="166.6425"
   xml:space="preserve"
   sodipodi:docname="logo.pdf"><metadata
     id="metadata2991"><rdf:RDF><cc:Work
         rdf:about=""><dc:format>image/svg+xml</dc:format><dc:type
           rdf:resource="http://purl.org/dc/dcmitype/StillImage" /><dc:title></dc:title></cc:Work></rdf:RDF></metadata><defs
     id="defs2989"><clipPath
       clipPathUnits="userSpaceOnUse"
       id="clipPath3019"><path
         d="M 184.054,133.314 0,133.314 0,0 l 184.054,0 0,133.314 z"
         id="path3021" /></clipPath></defs><sodipodi:namedview
     pagecolor="#ffffff"
     bordercolor="#666666"
     borderopacity="1"
     objecttolerance="10"
     gridtolerance="10"
     guidetolerance="10"
     inkscape:pageopacity="0"
     inkscape:pageshadow="2"
     inkscape:window-width="640"
     inkscape:window-height="480"
     id="namedview2987"
     showgrid="false"
     inkscape:zoom="1.4162053"
     inkscape:cx="115.03375"
     inkscape:cy="83.321251"
     inkscape:window-x="350"
     inkscape:window-y="141"
     inkscape:window-maximized="0"
     inkscape:current-layer="g2993" /><g
     id="g2993"
     inkscape:groupmode="layer"
     inkscape:label="logo"
     transform="matrix(1.25,0,0,-1.25,0,166.6425)"><g
       id="g2995"
       transform="translate(79,66.275)"><path
         d="m 0,0 c 0,-12.305 -9.972,-22.283 -22.283,-22.283 -12.305,0 -22.283,9.978 -22.283,22.283 0,12.309 9.978,22.283 22.283,22.283 C -9.972,22.283 0,12.309 0,0 z"
         style="fill:none;stroke:#58595b;stroke-opacity:1;stroke-width:1.8;stroke-linecap:butt;stroke-linejoin:miter;stroke-miterlimit:4;stroke-dasharray:none"
         id="path2997" /></g><g
       id="g2999"
       transform="translate(82.885,66.279)"><path
         d="m 0,0 c 0,-14.453 -11.713,-26.167 -26.162,-26.167 -14.455,0 -26.168,11.714 -26.168,26.167 0,14.449 11.713,26.164 26.168,26.164 C -11.713,26.164 0,14.449 0,0 z"
         style="fill:none;stroke:#f15a22;stroke-opacity:1;stroke-width:0.96;stroke-linecap:round;stroke-linejoin:miter;stroke-miterlimit:4;stroke-dasharray:none"
         id="path3001" /></g><g
       id="g3003"
       transform="translate(87.988,66.279)"><path
         d="m 0,0 c 0,-17.273 -13.997,-31.277 -31.266,-31.277 -17.272,0 -31.276,14.004 -31.276,31.277 0,17.266 14.004,31.27 31.276,31.27 C -13.997,31.27 0,17.266 0,0 z"
         style="fill:none;stroke:#f99d1c;stroke-opacity:1;stroke-width:4.8;stroke-linecap:round;stroke-linejoin:miter;stroke-miterlimit:4;stroke-dasharray:none"
         id="path3005" /></g><g
       id="g3007"
       transform="translate(96.912,69.293)"><path
         d="m 0,0 c 0,-21.504 -17.432,-38.939 -38.929,-38.939 -21.504,0 -38.936,17.435 -38.936,38.939 0,21.502 17.432,38.93 38.936,38.93 C -17.432,38.93 0,21.502 0,0 z"
         style="fill:none;stroke:#b34214;stroke-opacity:1;stroke-width:1.8;stroke-linecap:round;stroke-linejoin:miter;stroke-miterlimit:4;stroke-dasharray:none"
         id="path3009" /></g><g
       id="g3011"
       transform="translate(100.838,69.773)"><path
         d="m 0,0 c 0,-23.377 -18.949,-42.326 -42.321,-42.326 -23.368,0 -42.317,18.949 -42.317,42.326 0,23.368 18.949,42.316 42.317,42.316 C -18.949,42.316 0,23.368 0,0 z"
         style="fill:none;stroke:#638595;stroke-opacity:1;stroke-width:1.8;stroke-linecap:round;stroke-linejoin:miter;stroke-miterlimit:4;stroke-dasharray:none"
         id="path3013" /></g><g
       id="g3015"><g
         id="g3017"
         clip-path="url(#clipPath3019)"><g
           id="g3023"
           transform="translate(104.848,67.833)"><path
             d="m 0,0 c 0,-28.624 -23.199,-51.831 -51.823,-51.831 -28.622,0 -51.825,23.207 -51.825,51.831 0,28.618 23.203,51.821 51.825,51.821 C -23.199,51.821 0,28.618 0,0 z"
             style="fill:none;stroke:#fcaf17;stroke-opacity:1;stroke-width:2.4;stroke-linecap:round;stroke-linejoin:miter;stroke-miterlimit:4;stroke-dasharray:none"
             id="path3025" /></g></g></g><g
       id="g3027"
       transform="translate(114.742,52.748)"><path
         d="m 0,0 c 0,-28.865 -23.401,-52.267 -52.265,-52.267 -28.864,0 -52.26,23.402 -52.26,52.267 0,28.864 23.396,52.262 52.26,52.262 C -23.401,52.262 0,28.864 0,0 z"
         style="fill:none;stroke:#f05b7d;stroke-opacity:1;stroke-width:0.96;stroke-linecap:round;stroke-linejoin:miter;stroke-miterlimit:4;stroke-dasharray:none"
         id="path3029" /></g><g
       id="g3031"
       transform="translate(126.385,74.412)"><path
         d="m 0,0 c 0,-32.277 -26.701,-58.437 -59.631,-58.437 -32.929,0 -59.63,26.16 -59.63,58.437 0,32.264 26.701,58.422 59.63,58.422 C -26.701,58.422 0,32.264 0,0 z"
         style="fill:none;stroke:#f36f21;stroke-opacity:1;stroke-width:0.96;stroke-linecap:round;stroke-linejoin:miter;stroke-miterlimit:4;stroke-dasharray:none"
         id="path3033" /></g><g
       id="g3035"
       transform="translate(107.968,56.758)"><path
         d="m 0,0 0,20.506 4.003,0 0,-16.934 9.303,0 L 13.306,0 0,0"
         style="fill:#58595b;fill-opacity:1;fill-rule:nonzero;stroke:none"
         id="path3037" /></g><g
       id="g3039"
       transform="translate(128.097,54.339)"><path
         d="M 0,0 C -0.317,-0.835 -0.662,-1.469 -1.122,-1.929 -1.988,-2.794 -3.11,-3.081 -4.348,-3.081 l -1.47,0 0,3.369 0.865,0 c 1.065,0 1.498,0.26 1.873,1.354 l 0.632,1.843 -5.127,13.94 3.946,0 3.111,-9.273 2.995,9.273 3.947,0 L 0,0"
         style="fill:#58595b;fill-opacity:1;fill-rule:nonzero;stroke:none"
         id="path3041" /></g><g
       id="g3043"
       transform="translate(143.908,67.904)"><path
         d="m 0,0 c -0.431,0.432 -1.008,0.662 -1.757,0.662 -0.748,0 -1.296,-0.23 -1.726,-0.662 -0.779,-0.777 -0.865,-2.074 -0.865,-3.629 0,-1.555 0.086,-2.88 0.865,-3.658 0.43,-0.432 0.978,-0.662 1.726,-0.662 0.749,0 1.326,0.23 1.757,0.662 0.779,0.778 0.864,2.103 0.864,3.658 C 0.864,-2.074 0.779,-0.777 0,0 z m 2.909,-9.476 c -0.921,-0.979 -2.447,-1.842 -4.666,-1.842 -2.217,0 -3.713,0.863 -4.635,1.842 -1.354,1.412 -1.7,3.111 -1.7,5.847 0,2.707 0.346,4.406 1.7,5.817 0.922,0.98 2.418,1.843 4.635,1.843 2.219,0 3.745,-0.863 4.666,-1.843 1.354,-1.411 1.7,-3.11 1.7,-5.817 0,-2.736 -0.346,-4.435 -1.7,-5.847"
         style="fill:#58595b;fill-opacity:1;fill-rule:nonzero;stroke:none"
         id="path3045" /></g><g
       id="g3047"
       transform="translate(160.814,56.758)"><path
         d="m 0,0 0,9.072 c 0,2.045 -1.295,2.737 -2.476,2.737 -1.182,0 -2.505,-0.692 -2.505,-2.737 l 0,-9.072 -3.745,0 0,15.006 3.658,0 0,-1.383 c 0.979,1.037 2.362,1.555 3.743,1.555 1.498,0 2.707,-0.49 3.544,-1.324 1.208,-1.21 1.526,-2.621 1.526,-4.262 L 3.745,0 0,0"
         style="fill:#58595b;fill-opacity:1;fill-rule:nonzero;stroke:none"
         id="path3049" /></g><g
       id="g3051"
       transform="translate(180.31,56.758)"><path
         d="m 0,0 0,16.475 -4.176,-3.629 0,4.031 4.176,3.629 3.744,0 L 3.744,0 0,0"
         style="fill:#58595b;fill-opacity:1;fill-rule:nonzero;stroke:none"
         id="path3053" /></g><g
       id="g3055"
       transform="translate(49.334,73.139)"><path
         d="m 0,0 0,-8.352 0.007,0 c 0,-1.328 -1.073,-2.4 -2.398,-2.4 -1.318,0 -2.396,1.072 -2.396,2.4 l 0.012,0 0,7.622 -3.996,0 0,-7.622 c 0,-3.529 2.859,-6.382 6.38,-6.382 3.528,0 6.388,2.853 6.388,6.382 L 3.997,0 0,0"
         style="fill:#58595b;fill-opacity:1;fill-rule:nonzero;stroke:none"
         id="path3057" /></g><g
       id="g3059"
       transform="translate(59.154,57.025)"><path
         d="m 0,0 0,11.145 -4.078,0 0,-14.989 9.621,0 L 5.543,0 0,0"
         style="fill:#58595b;fill-opacity:1;fill-rule:nonzero;stroke:none"
         id="path3061" /></g><g
       id="g3063"
       transform="translate(66.279,62.295)"><path
         d="M 0,0 -1.336,0.002 -1.342,2.039 0.013,2.027 C 0.628,2.021 1.12,1.584 1.113,1.005 1.108,0.43 0.616,-0.008 0,0 z M -0.175,7.697 C 0.463,7.689 0.979,7.23 0.979,6.625 0.973,6.023 0.451,5.571 -0.187,5.574 l -1.12,0.004 0,2.119 1.132,0 z M 3.716,4.226 c 0.808,0.688 1.33,1.7 1.33,2.841 0,2.072 -1.683,3.75 -3.757,3.75 l -6.51,0.015 0,-14.285 6.791,-0.006 c 2.292,0 4.15,1.857 4.15,4.148 0,1.507 -0.803,2.811 -2.004,3.537"
         style="fill:#58595b;fill-opacity:1;fill-rule:nonzero;stroke:none"
         id="path3065" /></g><g
       id="g3067"
       transform="translate(56.318,70.283)"><path
         d="m 0,0 c -1.569,0 -2.848,1.273 -2.848,2.844 0,1.574 1.279,2.847 2.848,2.847 0.54,0 1.044,-0.162 1.472,-0.421 L 3.621,8.813 C 2.566,9.458 1.331,9.836 0,9.836 c -3.86,0 -6.989,-3.131 -6.989,-6.992 0,-3.857 3.129,-6.986 6.989,-6.986 3.861,0 6.99,3.129 6.99,6.986 l -4.141,0 C 2.849,1.273 1.57,0 0,0"
         style="fill:#58595b;fill-opacity:1;fill-rule:nonzero;stroke:none"
         id="path3069" /></g></g></svg>